<svg xmlns="http://www.w3.org/2000/svg" viewBox="0 0 32 32" id="multiple-currency">
  <path d="M5.146,22.853a.5.5,0,0,0,.708,0l1.413-1.413a.5.5,0,0,0-.707-.707L6,21.293V16.5A1.5,1.5,0,0,1,7.5,15h8v6.293l-.561-.561a.5.5,0,0,0-.707.707l1.413,1.413a.5.5,0,0,0,.708,0l1.413-1.413a.5.5,0,0,0-.707-.707l-.561.561V15h8A1.5,1.5,0,0,1,26,16.5v4.793l-.561-.561a.5.5,0,0,0-.707.707l1.413,1.413a.5.5,0,0,0,.708,0l1.413-1.413a.5.5,0,0,0-.707-.707L27,21.293V16.5A2.5,2.5,0,0,0,24.5,14h-8V12.975a6.5,6.5,0,1,0-1,0V14h-8A2.5,2.5,0,0,0,5,16.5v4.793l-.561-.561a.5.5,0,0,0-.707.707ZM10.5,6.5A5.5,5.5,0,1,1,16,12,5.507,5.507,0,0,1,10.5,6.5Zm6,4V10a2,2,0,0,0,0-4h-1a1,1,0,0,1,0-2h1a1,1,0,0,1,1,1,.5.5,0,0,0,1,0,2,2,0,0,0-2-2V2.5a.5.5,0,0,0-1,0V3a2,2,0,0,0,0,4h1a1,1,0,0,1,0,2h-1a1,1,0,0,1-1-1,.5.5,0,0,0-1,0,2,2,0,0,0,2,2v.5a.5.5,0,0,0,1,0ZM28.932,24.031a.5.5,0,0,0-.7.122l-1.719,2.452L25,24.256a.5.5,0,1,0-.84.543L25.581,27H24.5a.5.5,0,0,0,0,1H26v1H24.5a.5.5,0,0,0,0,1H26v1.5a.5.5,0,0,0,1,0V30h1.5a.5.5,0,0,0,0-1H27V28h1.5a.5.5,0,0,0,0-1H27.461l1.593-2.272A.5.5,0,0,0,28.932,24.031ZM16.395,25.07a1.192,1.192,0,0,1,.65.638.5.5,0,1,0,.91-.416A2.18,2.18,0,0,0,16.7,24.117a2.157,2.157,0,0,0-2.269.7,2.4,2.4,0,0,0-.131,2.189c.051.207.1.427.148.656H13.5a.5.5,0,0,0,0,1h1.076a5.42,5.42,0,0,1-.008.619,5.857,5.857,0,0,1-.522,2.007A.5.5,0,0,0,14.5,32h3a.5.5,0,0,0,0-1H15.233a6.7,6.7,0,0,0,.332-1.642,6.373,6.373,0,0,0,.009-.691H16.5a.5.5,0,0,0,0-1H15.464c-.059-.325-.128-.628-.194-.9-.177-.715-.252-1.071-.045-1.342A1.151,1.151,0,0,1,16.395,25.07ZM7.5,28.493a.5.5,0,0,0-.584.4C6.685,30.113,5.98,31,5.24,31c-.63,0-1.189-.607-1.5-1.484h.837a.5.5,0,0,0,0-1H3.516a4.107,4.107,0,0,1,0-1H4.578a.5.5,0,0,0,0-1H3.731C4.039,25.622,4.6,25,5.24,25c.527,0,1.045.44,1.385,1.179a.5.5,0,1,0,.908-.418A2.659,2.659,0,0,0,5.24,24c-1.181,0-2.162,1.03-2.561,2.516h-1.1a.5.5,0,0,0,0,1h.939c-.013.161-.033.318-.033.484s.02.345.035.516H1.578a.5.5,0,0,0,0,1H2.686C3.09,30.985,4.067,32,5.24,32,6.5,32,7.568,30.825,7.9,29.077A.5.5,0,0,0,7.5,28.493Z"></path>
</svg>
