<svg xmlns="http://www.w3.org/2000/svg" width="512" height="512" enable-background="new 0 0 512 512" viewBox="0 0 512 512" id="money-transfer">
  <path d="M473.845 464.175c-.007 0-.014 0-.02 0l-15.953.074c-2.209.011-3.992 1.81-3.981 4.019.011 2.203 1.799 3.981 4 3.981.006 0 .013 0 .019 0l15.953-.074c2.209-.011 3.992-1.81 3.981-4.019C477.833 465.953 476.045 464.175 473.845 464.175zM473.845 416.175c-.007 0-.014 0-.02 0l-15.953.074c-2.209.011-3.992 1.81-3.981 4.019.011 2.203 1.799 3.981 4 3.981.006 0 .013 0 .019 0l15.953-.074c2.209-.011 3.992-1.81 3.981-4.019C477.833 417.953 476.045 416.175 473.845 416.175zM245.83 124.3v31.866c0 2.209 1.791 4 4 4s4-1.791 4-4V124.3c0-6.617-5.384-12-12-12h-48.073c-2.209 0-4 1.791-4 4s1.791 4 4 4h48.073C244.035 120.3 245.83 122.094 245.83 124.3zM169.974 112.3h-33.47v-5.66c0-1.609-.97-3.069-2.47-3.689-1.49-.62-3.21-.28-4.36.87l-10 10c-1.56 1.56-1.56 4.09 0 5.649l10 10c.771.771 1.79 1.17 2.83 1.17.52 0 1.04-.1 1.53-.3.97-.399 1.71-1.149 2.119-2.06.23-.51.351-1.061.351-1.641v-6.34h33.47c2.21 0 4-1.79 4-4S172.184 112.3 169.974 112.3zM169.974 224.05h-33.47V218.4c0-1.62-.97-3.08-2.47-3.7-1.49-.62-3.21-.28-4.36.87l-10 10c-1.56 1.56-1.56 4.09 0 5.649l10 10c.771.771 1.79 1.181 2.83 1.181.52 0 1.04-.101 1.53-.311.97-.399 1.71-1.149 2.119-2.06.23-.5.351-1.061.351-1.63v-6.351h33.47c2.21 0 4-1.79 4-4S172.184 224.05 169.974 224.05zM169.974 335.8h-33.47v-5.649c0-1.62-.97-3.08-2.47-3.7-1.49-.62-3.21-.28-4.36.87l-10 10c-1.56 1.56-1.56 4.09 0 5.649l10 10c.771.771 1.79 1.181 2.83 1.181.52 0 1.04-.101 1.53-.311.97-.399 1.71-1.149 2.119-2.06.23-.5.351-1.05.351-1.63V343.8h33.47c2.21 0 4-1.79 4-4S172.184 335.8 169.974 335.8zM82.776 103.246c-1.794-1.292-4.294-.884-5.583.911L65.5 120.407l-3.009-3.38c-1.468-1.648-3.996-1.796-5.647-.329-1.65 1.469-1.797 3.997-.328 5.647l6.327 7.109c.761.855 1.85 1.341 2.987 1.341.069 0 .139-.002.208-.005 1.212-.063 2.33-.674 3.039-1.659l14.609-20.303C84.977 107.036 84.569 104.536 82.776 103.246zM82.776 214.652c-1.794-1.291-4.294-.884-5.583.911L65.5 231.813l-3.009-3.38c-1.468-1.648-3.996-1.796-5.647-.329-1.65 1.469-1.797 3.997-.328 5.647l6.327 7.109c.761.855 1.85 1.341 2.987 1.341.069 0 .139-.002.208-.005 1.212-.063 2.33-.674 3.039-1.659l14.609-20.303C84.977 218.442 84.569 215.942 82.776 214.652zM82.776 326.059c-1.794-1.291-4.294-.884-5.583.911L65.5 343.22l-3.009-3.38c-1.468-1.649-3.996-1.796-5.647-.329-1.65 1.469-1.797 3.997-.328 5.647l6.327 7.109c.761.855 1.85 1.341 2.987 1.341.069 0 .139-.002.208-.005 1.212-.063 2.33-.674 3.039-1.659l14.609-20.303C84.977 329.849 84.569 327.349 82.776 326.059z"></path>
  <path d="M476.356,264.326h-22.469v-22.42c0-0.872-0.707-1.579-1.579-1.579h-22.427v-49.079c0-8.226-6.668-14.893-14.893-14.893
		h-73.105V27.05c0-10.37-8.41-18.79-18.779-18.79H80.724c-4.57,0-8.77,1.63-12.02,4.351c-2.471,2.05-4.4,4.729-5.551,7.79
		c-0.789,2.069-1.22,4.3-1.22,6.649v54.605c-15.94,3.661-27.869,17.954-27.869,34.989s11.929,31.328,27.869,34.989v41.772
		c-15.94,3.662-27.869,17.954-27.869,34.989s11.929,31.327,27.869,34.989v41.772c-15.94,3.661-27.869,17.954-27.869,34.989
		s11.929,31.327,27.869,34.988V484.96c0,10.37,8.42,18.78,18.79,18.78h242.381c10.369,0,18.779-8.41,18.779-18.78v-12.79h92.01
		c2.2,0,4-1.79,4-4c0-2.2-1.8-4-4-4h-92.01v-16.13h131.96c2.21,0,4-1.8,4-4c0-2.21-1.79-4-4-4h-131.96v-15.78l92.01-0.01
		c2.211,0,4-1.79,4-4s-1.8-4-4-4l-92.01,0.01v-23.936h134.473c0.873,0,1.58-0.707,1.58-1.579v-124.84
		C477.937,265.033,477.229,264.326,476.356,264.326z M444.309,248.327c0.872,0,1.579,0.707,1.579,1.579v14.42v8v86.42
		c0,0.872-0.707,1.579-1.579,1.579H213.903v-15.979h201.086c8.225,0,14.893-6.667,14.893-14.892v-81.128H444.309z M349.802,284.437
		c0,2.219-1.799,4.018-4.018,4.018h-23.9c-2.219,0-4.018-1.799-4.018-4.018s1.799-4.017,4.018-4.017h23.9
		C348.003,280.42,349.802,282.218,349.802,284.437z M281.921,288.454c-2.219,0-4.018-1.799-4.018-4.018s1.799-4.017,4.018-4.017
		h15.951c2.219,0,4.018,1.798,4.018,4.017s-1.799,4.018-4.018,4.018H281.921z M293.89,308.433c0,2.219-1.799,4.018-4.018,4.018
		h-15.951c-2.219,0-4.018-1.799-4.018-4.018c0-2.218,1.799-4.017,4.018-4.017h15.951C292.091,304.416,293.89,306.215,293.89,308.433
		z M205.898,288.454v-8.034h51.96c2.219,0,4.018,1.798,4.018,4.017s-1.799,4.018-4.018,4.018H205.898z M253.885,308.433
		c0,2.219-1.799,4.018-4.018,4.018h-43.969v-8.034h43.969C252.086,304.416,253.885,306.215,253.885,308.433z M213.903,184.428
		h27.987c2.209,0,4,1.791,4,4s-1.791,4-4,4h-27.987c-2.209,0-4-1.791-4-4S211.694,184.428,213.903,184.428z M252.891,188.428
		c0-2.209,1.791-4,4-4h17c2.209,0,4,1.791,4,4s-1.791,4-4,4h-17C254.682,192.428,252.891,190.637,252.891,188.428z M373.983,200.424
		c5.363,0,10.098,2.647,13,6.697c2.904-4.05,7.639-6.697,13-6.697c8.837,0,16,7.164,16,16c0,8.837-7.163,16-16,16
		c-5.361,0-10.096-2.647-13-6.696c-2.902,4.049-7.637,6.696-13,6.696c-8.836,0-16-7.163-16-16
		C357.983,207.588,365.147,200.424,373.983,200.424z M225.891,24.249h16c2.209,0,4,1.791,4,4s-1.791,4-4,4h-16c-2.209,0-4-1.791-4-4
		S223.682,24.249,225.891,24.249z M161.891,24.249h40c2.209,0,4,1.791,4,4s-1.791,4-4,4h-40c-2.209,0-4-1.791-4-4
		S159.682,24.249,161.891,24.249z M42.064,116.645c0-15.388,12.519-27.907,27.907-27.907c15.388,0,27.907,12.52,27.907,27.907
		s-12.52,27.907-27.907,27.907C54.583,144.552,42.064,132.032,42.064,116.645z M42.064,228.396
		c0-15.388,12.519-27.907,27.907-27.907c15.388,0,27.907,12.52,27.907,27.907s-12.52,27.907-27.907,27.907
		C54.583,256.303,42.064,243.783,42.064,228.396z M42.064,340.146c0-15.388,12.519-27.907,27.907-27.907
		c15.388,0,27.907,12.52,27.907,27.907s-12.52,27.906-27.907,27.906C54.583,368.053,42.064,355.534,42.064,340.146z
		 M201.894,484.313c-5.365,0-9.715-4.35-9.715-9.715c0-5.366,4.35-9.716,9.715-9.716c5.366,0,9.716,4.35,9.716,9.716
		C211.609,479.963,207.26,484.313,201.894,484.313z M325.894,441.775c0,3.58-2.899,6.47-6.47,6.47H84.364
		c-3.58,0-6.471-2.89-6.471-6.47v-66.614c15.999-3.618,27.985-17.938,27.985-35.015s-11.986-31.397-27.985-35.016v-41.72
		c15.999-3.618,27.985-17.939,27.985-35.016s-11.986-31.397-27.985-35.016v-41.72c15.999-3.618,27.985-17.939,27.985-35.016
		S93.893,85.247,77.894,81.629V62.715c0-3.569,2.891-6.47,6.471-6.47h235.06c3.57,0,6.47,2.9,6.47,6.47v113.641h-111.99v-16.002
		c0-4.421-3.584-8.004-8.005-8.004s-8.005,3.583-8.005,8.004v16.002h-0.012v87.971v80.021v47.978h0.012v16.02
		c0,4.422,3.584,8.006,8.005,8.006s8.005-3.584,8.005-8.006v-16.02h111.99V441.775z M469.937,382.745
		c0,0.872-0.707,1.579-1.58,1.579H341.884h-15.99h-111.99v-15.999h238.405c0.872,0,1.579-0.707,1.579-1.579v-94.42h14.469
		c0.873,0,1.58,0.707,1.58,1.578V382.745z"></path>
  <path d="M399.983,226.424c5.515,0,10-4.486,10-10s-4.485-10-10-10c-5.514,0-10,4.486-10,10S394.47,226.424,399.983,226.424z"></path>
</svg>
